<mxfile host="app.diagrams.net" modified="2024-06-08T09:34:18.106Z" agent="Mozilla/5.0 (Windows NT 10.0; Win64; x64) AppleWebKit/537.36 (KHTML, like Gecko) Chrome/125.0.0.0 Safari/537.36 Edg/125.0.0.0" etag="50RgpNOWyW5_eQfReQnB" version="24.4.9" type="github">
  <diagram name="Trang-1" id="nOcp8MUhvR5Hp5ivLHBa">
    <mxGraphModel dx="1020" dy="549" grid="0" gridSize="10" guides="1" tooltips="1" connect="1" arrows="1" fold="1" page="1" pageScale="1" pageWidth="850" pageHeight="1100" math="0" shadow="0">
      <root>
        <mxCell id="0" />
        <mxCell id="1" parent="0" />
        <mxCell id="IVnAHXukcUSF2gY5zvCo-1" value="&lt;font size=&quot;3&quot;&gt;Bắt đầu&lt;/font&gt;" style="ellipse;whiteSpace=wrap;html=1;" vertex="1" parent="1">
          <mxGeometry x="350" y="90" width="100" height="50" as="geometry" />
        </mxCell>
        <mxCell id="IVnAHXukcUSF2gY5zvCo-3" value="Khởi tạo Clock, GPIO, RTC, UART, SPI, ADC, Timer" style="rounded=0;whiteSpace=wrap;html=1;" vertex="1" parent="1">
          <mxGeometry x="340" y="170" width="120" height="50" as="geometry" />
        </mxCell>
        <mxCell id="IVnAHXukcUSF2gY5zvCo-4" value="" style="endArrow=classic;html=1;rounded=0;exitX=0.5;exitY=1;exitDx=0;exitDy=0;" edge="1" parent="1" source="IVnAHXukcUSF2gY5zvCo-1" target="IVnAHXukcUSF2gY5zvCo-3">
          <mxGeometry width="50" height="50" relative="1" as="geometry">
            <mxPoint x="400" y="350" as="sourcePoint" />
            <mxPoint x="450" y="300" as="targetPoint" />
          </mxGeometry>
        </mxCell>
        <mxCell id="IVnAHXukcUSF2gY5zvCo-5" value="" style="endArrow=classic;html=1;rounded=0;exitX=0;exitY=0.5;exitDx=0;exitDy=0;" edge="1" parent="1">
          <mxGeometry width="50" height="50" relative="1" as="geometry">
            <mxPoint x="340" y="190" as="sourcePoint" />
            <mxPoint x="400" y="150" as="targetPoint" />
            <Array as="points">
              <mxPoint x="300" y="190" />
              <mxPoint x="300" y="170" />
              <mxPoint x="300" y="150" />
            </Array>
          </mxGeometry>
        </mxCell>
        <mxCell id="IVnAHXukcUSF2gY5zvCo-6" value="S" style="text;html=1;align=center;verticalAlign=middle;whiteSpace=wrap;rounded=0;" vertex="1" parent="1">
          <mxGeometry x="288" y="170" width="60" height="30" as="geometry" />
        </mxCell>
        <mxCell id="IVnAHXukcUSF2gY5zvCo-7" value="Khởi tạo 2 IC ADC &amp;amp; DAC" style="rounded=0;whiteSpace=wrap;html=1;" vertex="1" parent="1">
          <mxGeometry x="350" y="250" width="100" height="30" as="geometry" />
        </mxCell>
        <mxCell id="IVnAHXukcUSF2gY5zvCo-8" value="" style="endArrow=classic;html=1;rounded=0;exitX=0.5;exitY=1;exitDx=0;exitDy=0;entryX=0.5;entryY=0;entryDx=0;entryDy=0;" edge="1" parent="1" source="IVnAHXukcUSF2gY5zvCo-3" target="IVnAHXukcUSF2gY5zvCo-7">
          <mxGeometry width="50" height="50" relative="1" as="geometry">
            <mxPoint x="380" y="300" as="sourcePoint" />
            <mxPoint x="430" y="250" as="targetPoint" />
          </mxGeometry>
        </mxCell>
        <mxCell id="IVnAHXukcUSF2gY5zvCo-9" value="Chờ sự kiện từ ESP32" style="rounded=0;whiteSpace=wrap;html=1;" vertex="1" parent="1">
          <mxGeometry x="350" y="310" width="100" height="40" as="geometry" />
        </mxCell>
        <mxCell id="IVnAHXukcUSF2gY5zvCo-10" value="" style="endArrow=classic;html=1;rounded=0;exitX=0.5;exitY=1;exitDx=0;exitDy=0;entryX=0.5;entryY=0;entryDx=0;entryDy=0;" edge="1" parent="1" source="IVnAHXukcUSF2gY5zvCo-7" target="IVnAHXukcUSF2gY5zvCo-9">
          <mxGeometry width="50" height="50" relative="1" as="geometry">
            <mxPoint x="400" y="290" as="sourcePoint" />
            <mxPoint x="430" y="250" as="targetPoint" />
          </mxGeometry>
        </mxCell>
        <mxCell id="IVnAHXukcUSF2gY5zvCo-11" value="" style="endArrow=classic;html=1;rounded=0;" edge="1" parent="1">
          <mxGeometry width="50" height="50" relative="1" as="geometry">
            <mxPoint x="400" y="350" as="sourcePoint" />
            <mxPoint x="400" y="390" as="targetPoint" />
          </mxGeometry>
        </mxCell>
        <mxCell id="IVnAHXukcUSF2gY5zvCo-12" value="" style="endArrow=classic;html=1;rounded=0;exitX=0;exitY=0.5;exitDx=0;exitDy=0;" edge="1" parent="1" source="IVnAHXukcUSF2gY5zvCo-9">
          <mxGeometry width="50" height="50" relative="1" as="geometry">
            <mxPoint x="410" y="360" as="sourcePoint" />
            <mxPoint x="400" y="290" as="targetPoint" />
            <Array as="points">
              <mxPoint x="300" y="330" />
              <mxPoint x="300" y="290" />
            </Array>
          </mxGeometry>
        </mxCell>
        <mxCell id="IVnAHXukcUSF2gY5zvCo-14" value="S" style="text;html=1;align=center;verticalAlign=middle;whiteSpace=wrap;rounded=0;" vertex="1" parent="1">
          <mxGeometry x="300" y="310" width="60" height="30" as="geometry" />
        </mxCell>
        <mxCell id="IVnAHXukcUSF2gY5zvCo-16" value="Đ" style="text;html=1;align=center;verticalAlign=middle;whiteSpace=wrap;rounded=0;" vertex="1" parent="1">
          <mxGeometry x="388.25" y="354" width="35.5" height="10" as="geometry" />
        </mxCell>
        <mxCell id="IVnAHXukcUSF2gY5zvCo-17" value="Đ" style="text;html=1;align=center;verticalAlign=middle;whiteSpace=wrap;rounded=0;" vertex="1" parent="1">
          <mxGeometry x="376" y="216" width="60" height="30" as="geometry" />
        </mxCell>
        <mxCell id="IVnAHXukcUSF2gY5zvCo-18" value="" style="rhombus;whiteSpace=wrap;html=1;" vertex="1" parent="1">
          <mxGeometry x="344.25" y="390" width="111.5" height="50" as="geometry" />
        </mxCell>
        <mxCell id="IVnAHXukcUSF2gY5zvCo-20" value="&lt;font style=&quot;font-size: 10px;&quot;&gt;Sự kiện cấu hình thiết bị&lt;/font&gt;" style="text;html=1;align=center;verticalAlign=middle;whiteSpace=wrap;rounded=0;" vertex="1" parent="1">
          <mxGeometry x="370" y="400" width="60" height="30" as="geometry" />
        </mxCell>
        <mxCell id="IVnAHXukcUSF2gY5zvCo-23" value="" style="rhombus;whiteSpace=wrap;html=1;" vertex="1" parent="1">
          <mxGeometry x="344.25" y="460" width="111.5" height="50" as="geometry" />
        </mxCell>
        <mxCell id="IVnAHXukcUSF2gY5zvCo-24" value="&lt;font style=&quot;font-size: 10px;&quot;&gt;Sự kiện tiến hành đo&lt;/font&gt;" style="text;html=1;align=center;verticalAlign=middle;whiteSpace=wrap;rounded=0;" vertex="1" parent="1">
          <mxGeometry x="373" y="470" width="60" height="30" as="geometry" />
        </mxCell>
        <mxCell id="IVnAHXukcUSF2gY5zvCo-25" value="" style="endArrow=classic;html=1;rounded=0;exitX=1;exitY=0.5;exitDx=0;exitDy=0;" edge="1" parent="1" source="IVnAHXukcUSF2gY5zvCo-18">
          <mxGeometry width="50" height="50" relative="1" as="geometry">
            <mxPoint x="390" y="460" as="sourcePoint" />
            <mxPoint x="480" y="415" as="targetPoint" />
          </mxGeometry>
        </mxCell>
        <mxCell id="IVnAHXukcUSF2gY5zvCo-26" value="&lt;font style=&quot;font-size: 10px;&quot;&gt;Nhận cấu hình và tiến hành cấu hình&lt;/font&gt;" style="rounded=0;whiteSpace=wrap;html=1;" vertex="1" parent="1">
          <mxGeometry x="479.75" y="395" width="90" height="40" as="geometry" />
        </mxCell>
        <mxCell id="IVnAHXukcUSF2gY5zvCo-27" value="" style="endArrow=classic;html=1;rounded=0;exitX=0.443;exitY=-0.007;exitDx=0;exitDy=0;exitPerimeter=0;" edge="1" parent="1" source="IVnAHXukcUSF2gY5zvCo-26">
          <mxGeometry width="50" height="50" relative="1" as="geometry">
            <mxPoint x="390" y="490" as="sourcePoint" />
            <mxPoint x="400" y="370" as="targetPoint" />
            <Array as="points">
              <mxPoint x="520" y="370" />
            </Array>
          </mxGeometry>
        </mxCell>
        <mxCell id="IVnAHXukcUSF2gY5zvCo-28" value="S" style="text;html=1;align=center;verticalAlign=middle;whiteSpace=wrap;rounded=0;" vertex="1" parent="1">
          <mxGeometry x="494.75" y="370" width="60" height="30" as="geometry" />
        </mxCell>
        <mxCell id="IVnAHXukcUSF2gY5zvCo-30" value="" style="endArrow=classic;html=1;rounded=0;entryX=0.5;entryY=0;entryDx=0;entryDy=0;" edge="1" parent="1" target="IVnAHXukcUSF2gY5zvCo-23">
          <mxGeometry width="50" height="50" relative="1" as="geometry">
            <mxPoint x="570" y="417" as="sourcePoint" />
            <mxPoint x="400" y="447" as="targetPoint" />
            <Array as="points">
              <mxPoint x="600" y="417" />
              <mxPoint x="600" y="447" />
              <mxPoint x="400" y="448" />
            </Array>
          </mxGeometry>
        </mxCell>
        <mxCell id="IVnAHXukcUSF2gY5zvCo-31" value="Đ" style="text;html=1;align=center;verticalAlign=middle;whiteSpace=wrap;rounded=0;" vertex="1" parent="1">
          <mxGeometry x="554.75" y="395" width="60" height="30" as="geometry" />
        </mxCell>
        <mxCell id="IVnAHXukcUSF2gY5zvCo-32" value="" style="rounded=0;whiteSpace=wrap;html=1;" vertex="1" parent="1">
          <mxGeometry x="479.75" y="467.5" width="60.25" height="35" as="geometry" />
        </mxCell>
        <mxCell id="IVnAHXukcUSF2gY5zvCo-33" value="" style="endArrow=classic;html=1;rounded=0;exitX=1;exitY=0.5;exitDx=0;exitDy=0;entryX=0;entryY=0.5;entryDx=0;entryDy=0;" edge="1" parent="1" source="IVnAHXukcUSF2gY5zvCo-23" target="IVnAHXukcUSF2gY5zvCo-32">
          <mxGeometry width="50" height="50" relative="1" as="geometry">
            <mxPoint x="420" y="490" as="sourcePoint" />
            <mxPoint x="480" y="480" as="targetPoint" />
          </mxGeometry>
        </mxCell>
        <mxCell id="IVnAHXukcUSF2gY5zvCo-34" value="Bắt đầu đo" style="text;html=1;align=center;verticalAlign=middle;whiteSpace=wrap;rounded=0;" vertex="1" parent="1">
          <mxGeometry x="479.75" y="470" width="60" height="30" as="geometry" />
        </mxCell>
        <mxCell id="IVnAHXukcUSF2gY5zvCo-35" value="" style="rounded=0;whiteSpace=wrap;html=1;" vertex="1" parent="1">
          <mxGeometry x="360" y="529" width="80" height="42" as="geometry" />
        </mxCell>
        <mxCell id="IVnAHXukcUSF2gY5zvCo-36" value="" style="endArrow=classic;html=1;rounded=0;exitX=0.995;exitY=0.36;exitDx=0;exitDy=0;exitPerimeter=0;entryX=0.417;entryY=0.001;entryDx=0;entryDy=0;entryPerimeter=0;" edge="1" parent="1" source="IVnAHXukcUSF2gY5zvCo-32" target="IVnAHXukcUSF2gY5zvCo-28">
          <mxGeometry width="50" height="50" relative="1" as="geometry">
            <mxPoint x="430" y="390" as="sourcePoint" />
            <mxPoint x="660" y="410" as="targetPoint" />
            <Array as="points">
              <mxPoint x="620" y="480" />
              <mxPoint x="620" y="370" />
            </Array>
          </mxGeometry>
        </mxCell>
        <mxCell id="IVnAHXukcUSF2gY5zvCo-37" value="S" style="text;html=1;align=center;verticalAlign=middle;whiteSpace=wrap;rounded=0;" vertex="1" parent="1">
          <mxGeometry x="539.75" y="460" width="60" height="30" as="geometry" />
        </mxCell>
        <mxCell id="IVnAHXukcUSF2gY5zvCo-38" value="" style="endArrow=classic;html=1;rounded=0;exitX=1;exitY=0.75;exitDx=0;exitDy=0;entryX=1;entryY=0.5;entryDx=0;entryDy=0;" edge="1" parent="1" source="IVnAHXukcUSF2gY5zvCo-34" target="IVnAHXukcUSF2gY5zvCo-35">
          <mxGeometry width="50" height="50" relative="1" as="geometry">
            <mxPoint x="460" y="520" as="sourcePoint" />
            <mxPoint x="510" y="470" as="targetPoint" />
            <Array as="points">
              <mxPoint x="600" y="493" />
              <mxPoint x="600" y="550" />
            </Array>
          </mxGeometry>
        </mxCell>
        <mxCell id="IVnAHXukcUSF2gY5zvCo-39" value="Gửi dữ liệu đén ESP32" style="text;html=1;align=center;verticalAlign=middle;whiteSpace=wrap;rounded=0;" vertex="1" parent="1">
          <mxGeometry x="359" y="535" width="80" height="30" as="geometry" />
        </mxCell>
        <mxCell id="IVnAHXukcUSF2gY5zvCo-40" value="Kết thúc" style="ellipse;whiteSpace=wrap;html=1;" vertex="1" parent="1">
          <mxGeometry x="366" y="590" width="68" height="50" as="geometry" />
        </mxCell>
        <mxCell id="IVnAHXukcUSF2gY5zvCo-41" value="" style="endArrow=classic;html=1;rounded=0;entryX=0.5;entryY=0;entryDx=0;entryDy=0;exitX=0.5;exitY=1;exitDx=0;exitDy=0;" edge="1" parent="1" source="IVnAHXukcUSF2gY5zvCo-35" target="IVnAHXukcUSF2gY5zvCo-40">
          <mxGeometry width="50" height="50" relative="1" as="geometry">
            <mxPoint x="260" y="530" as="sourcePoint" />
            <mxPoint x="310" y="480" as="targetPoint" />
          </mxGeometry>
        </mxCell>
      </root>
    </mxGraphModel>
  </diagram>
</mxfile>
